<?xml version="1.0" encoding="UTF-8"?>
<svg id="Capa_1" xmlns="http://www.w3.org/2000/svg" version="1.1" viewBox="0 0 1080 1080">
  <defs>
    <style>
      .st0 {
        fill: #f75e2f;
      }
    </style>
  </defs>
  <path class="st0" d="M737.71,662.2h-396.16c-.27,0-.49.22-.48.49,1.04,21.48,3.93,50.43-22.8,56.47-16.02,3.62-99.73,2.95-117.79.41-41.61-5.87-23.03-38.83-29.86-61.76-3.27-10.96-22.74-16.6-26.16-41.71-4.8-35.23-4.97-157.81,0-192.79,2.82-19.84,18.15-35.45,36.93-41.13,2.73-.83,24.16-4.97,25.58-4.97h602.01c.28,0,.5-.25.48-.53-6.86-69.31-59.76-120.07-123.93-139.85-10.05-3.1-20.52-4.63-31.04-4.65l-515.51-1s-.05,0-.07,0c-43.29,5.84-75.2,35.78-79.57,79.89-11.4,115.24,7.51,248,.7,366.05-.87,15.12,1.83,30.3,8.44,43.92,14.46,29.8,44.06,48.06,80.67,49.84h784.39c48.95-2.4,85.16-34.15,89.78-83.3,11.36-120.92,3.38-349.08-.82-382.45-3.49-35.26-37.53-68.75-72.4-73.52-24.52-3.36-95.47-3.77-99.44-12.57-25.03-55.49,106.05-34.59,130.88-25.64,44.15,15.91,81.47,60.11,85.91,107.52,5.5,58.69,4.18,117.81,2.14,176.64,0,46.97-.73,94.34-2.48,141.38-1.28,34.35-.5,71.01-6.29,104.93-8.19,47.92-66.47,91.15-113.7,91.12l-817.76-.54s-.05,0-.07,0c-8.08-1.17-15.92-3.05-23.47-5.58-54.37-18.25-90.16-70.38-88.97-127.72,2.56-122.8-10.17-253.04-1.82-373.66,4.9-70.79,62.15-121.16,130.89-123.64,109.96-3.96,430.69,1.3,493.7-.85,2.08-.07,5.48-.1,7.55-.02,84.3,3.2,169.06,52.21,203.7,130.83,6.29,14.27,12.82,51.56,21.54,59.9,6.79,6.49,27.17,7.93,37.85,13.07,17.85,8.59,26.05,23.33,28.27,43,4.69,41.65,3.76,133.95.11,176.56-3.3,38.52-22.93,36.89-26.72,47.93-6.71,19.53,11.1,55.83-24.08,64.14-19.89,4.7-91.33,3.52-114.08,1.59-34.64-2.94-37.42-26.88-35.55-57.3.02-.27-.2-.51-.47-.51ZM221.35,418.74c-53.89,8.61-37.47,79.7,9.58,87.17,95.66,15.19,68.97-99.72-9.58-87.17ZM842.55,418.75c-58.9,9.94-69.86,98.49,12.48,87.08,63.19-8.76,62.59-99.74-12.48-87.08ZM353.58,496.97c-12.76-17.21-58.93-15.47-49.2,16.93,8.81,29.35,74.03,16.57,49.2-16.93ZM754.31,486.5c-23.7,4.61-34.21,37.32-10.26,42.61,51.48,11.39,56.5-51.6,10.26-42.61ZM635.9,604.53h-189.15c-.26,0-.48.21-.48.48v26.19c0,.26.21.48.48.48h189.15c.26,0,.48-.21.48-.48v-26.19c0-.26-.21-.48-.48-.48Z"/>
  <path class="st0" d="M197.65,336.77c5.69,5.69,5.86,25.36-1.46,29.99-5.61,3.55-50.1,14.56-56.42,12.67-12.82-3.83-13.01-36.78-3.86-43.22,7.93-5.58,55.16-6.01,61.73.56Z"/>
  <path class="st0" d="M884.97,365.72c-6.48-6.32-5.74-26.99,3.38-30.89s50.54-4.16,58.38,1.39c9.01,6.38,9.11,39.34-3.86,43.22-6.36,1.9-54.14-10.04-57.9-13.71Z"/>
  <path class="st0" d="M234.88,296.94h0c-3.31-1.93-6.62-3.86-9.93-5.79h0c-1.17-1.52-2.35-3.03-3.52-4.55,0,0,0,0,0,0l-2.27-5.37s.01.05.02.08l-.8-5.98c.16,1.25.09,2.55.11,3.8.03,2.84.04,5.68.05,8.52.02,8.78,0,17.55,0,26.33-.01,10.33-.03,20.66-.04,30.99,0,8.79,0,17.59.06,26.38.02,2.8.04,5.61.11,8.41.07,3.19.16,6.73.98,9.73.52,1.9,1.22,3.8,2.29,5.46.02.03,3.5,4.54,3.53,4.57,0,0,4.56,3.52,4.56,3.52,1.64,1.05,3.5,1.79,5.38,2.27,2.99.94,5.98,1.07,8.97.4,2.99-.14,5.78-1.03,8.37-2.67,2.62-1.41,4.73-3.35,6.31-5.8,1.99-2.17,3.33-4.72,4.03-7.65l.8-5.98c-.01-4.06-1.04-7.85-3.07-11.36-3.15-4.88-7.69-8.86-13.45-10.34h0c1.79.76,3.58,1.51,5.37,2.27h0c1.52,1.17,3.04,2.34,4.55,3.52h0c1.17,1.51,2.35,3.03,3.52,4.55,0,0,0-.01-.01-.02l2.27,5.37c-.02-.06-.03-.13-.04-.19l.8,5.98c-.18-1.4-.14-2.85-.17-4.26-.06-2.9-.08-5.81-.1-8.71-.06-8.81-.06-17.61-.06-26.42,0-10.25.02-20.5.04-30.75.01-8.65.03-17.29,0-25.94-.01-5.02.11-10-.56-14.98.28,2.1-.16-2.14-.42-3.07,0,0-2.27-5.38-2.27-5.38h0c-1.02-1.63-2.19-3.15-3.52-4.56-2.98-2.73-6.05-4.47-9.93-5.79-2.99-.94-5.98-1.07-8.97-.4-2.99.14-5.78,1.03-8.37,2.67-2.62,1.41-4.73,3.35-6.31,5.8-1.99,2.17-3.33,4.72-4.03,7.65l-.8,5.98c.01,4.06,1.04,7.85,3.07,11.36l3.52,4.55c2.81,2.79,6.12,4.72,9.93,5.79h0Z"/>
  <path class="st0" d="M198.7,390.64c8.35-.25,16.07-3.23,22.58-8.4,5.85-4.66,10.05-11.46,12.04-18.63.84-3.02-1.03-6.66-4.19-7.38s-6.49.95-7.38,4.19c-.21.77-.45,1.54-.72,2.29-.09.24-.24,1.02-.43,1.12.28-.15.52-1.18.05-.14-.64,1.4-1.38,2.75-2.22,4.03-.18.28-.37.56-.56.83-.11.15-.9,1.32-.36.52s-.15.17-.28.33c-.26.31-.52.61-.79.91-1.03,1.14-2.14,2.21-3.33,3.18-.78.64-.34,0,.08-.05-.21.03-.84.6-1.02.72-.63.43-1.29.83-1.95,1.22s-1.34.74-2.04,1.07c-.25.12-.5.24-.76.35l.66-.28c-.38.1-.8.32-1.17.46-1.44.53-2.92.95-4.42,1.26-.41.08-.82.15-1.23.23-1.43.26,1.38-.11-.06.01-.83.07-1.66.14-2.5.16-3.13.1-6.15,2.69-6,6s2.64,6.1,6,6h0Z"/>
  <path class="st0" d="M219.65,353.13c-.03.48-.07.96-.12,1.45-.04.44-.38,1.88,0,.26-.21.94-.3,1.91-.5,2.85-.4,1.89-.92,3.76-1.56,5.58-.14.39-.28.78-.43,1.17-.07.17-.67,1.67-.32.82.32-.77.04-.1-.03.04-.12.25-.23.5-.34.75-.23.5-.48,1-.73,1.49-.85,1.66-1.8,3.26-2.85,4.8-.27.4-.55.79-.84,1.18-.12.17-.25.33-.37.5-.48.66.7-.86.18-.23-.62.74-1.23,1.49-1.88,2.2-1.27,1.39-2.63,2.7-4.07,3.91-.31.26-.71.76-1.09.89,0,0,.96-.72.42-.32-.16.12-.32.24-.49.36-.81.6-1.65,1.16-2.5,1.7-1.59,1.01-3.24,1.92-4.94,2.72-.42.2-.89.35-1.29.58,1.38-.8.01-.01-.43.16-1,.38-2.02.73-3.05,1.04-2.06.62-4.16,1.08-6.29,1.4-1.39.21-2.91,1.61-3.59,2.76-.75,1.29-1.07,3.18-.6,4.62s1.37,2.85,2.76,3.59c1.52.8,2.94.86,4.62.6,8.73-1.31,16.8-5.18,23.71-10.6s12.19-13.09,15.44-21.4c1.86-4.75,2.84-9.8,3.19-14.88.22-3.14-2.92-6.14-6-6-3.44.15-5.77,2.64-6,6h0Z"/>
  <path class="st0" d="M220.69,342.99c-1.67,3.88-2.75,7.81-3.55,11.95-.71,3.71-1.3,7.46-2.45,11.07-.14.44-.29.88-.45,1.32-.17.46-.85,1.55-.06.23-.47.79-.79,1.69-1.26,2.49-.23.4-.48.8-.74,1.18s-1.16,1.36-.05.15c-.58.64-1.11,1.32-1.72,1.94s-1.25,1.18-1.91,1.74c-.83.71.93-.67.05-.03-.4.29-.8.58-1.22.86-1.46.98-3,1.84-4.58,2.62-.92.45-1.86.84-2.78,1.27-.02.01,1.17-.48.55-.23-.3.12-.59.24-.89.36-.48.19-.96.37-1.44.55-1.91.72-3.84,1.37-5.78,2.02-2.97.99-5.23,4.18-4.19,7.38.96,2.96,4.19,5.25,7.38,4.19,7.76-2.58,15.53-5.46,21.82-10.86,6.66-5.73,9.21-13.9,10.78-22.24.4-2.14.78-4.28,1.27-6.4.26-1.12.55-2.23.88-3.33.16-.51.32-1.03.5-1.53.15-.43.88-2.18.21-.63.66-1.54,1.07-2.93.6-4.62-.38-1.39-1.46-2.9-2.76-3.59-2.58-1.37-6.88-.93-8.21,2.15h0Z"/>
</svg>