<svg width="156" height="48" viewBox="0 0 156 48" fill="none" xmlns="http://www.w3.org/2000/svg">
<path fill-rule="evenodd" clip-rule="evenodd" d="M132.516 38.3094C134.848 39.6849 137.509 40.3726 140.499 40.3726C142.473 40.3726 144.342 40.0138 146.106 39.2961C147.9 38.5486 149.485 37.517 150.86 36.2013C152.236 34.8857 153.297 33.3756 154.045 31.6713L150.098 29.922C149.5 31.1779 148.707 32.2992 147.721 33.2859C146.764 34.2428 145.672 35.0053 144.446 35.5734C143.22 36.1116 141.92 36.3807 140.544 36.3807C138.421 36.3807 136.522 35.8724 134.848 34.8558C133.203 33.8092 131.903 32.359 130.946 30.5051C130.019 28.6512 129.555 26.5282 129.555 24.1361C129.555 21.744 130.019 19.6359 130.946 17.8119C131.873 15.9879 133.159 14.5526 134.803 13.5061C136.448 12.4595 138.317 11.9363 140.41 11.9363C141.755 11.9363 143.041 12.1904 144.267 12.6988C145.523 13.2071 146.644 13.9098 147.631 14.8068C148.618 15.7039 149.395 16.7654 149.963 17.9913L153.91 16.1972C153.163 14.5526 152.086 13.1174 150.681 11.8914C149.305 10.6356 147.736 9.66376 145.971 8.97602C144.207 8.25839 142.353 7.89957 140.41 7.89957C137.42 7.89957 134.773 8.60225 132.471 10.0076C130.168 11.3831 128.359 13.2968 127.044 15.7487C125.728 18.1707 125.07 20.9665 125.07 24.1361C125.07 27.3056 125.728 30.1164 127.044 32.5683C128.359 34.9903 130.183 36.904 132.516 38.3094ZM117.576 31.447L120.895 39.8344H125.605L112.956 8.43781H112.732H108.471H108.247L95.5986 39.8344H100.308L103.627 31.447H117.576ZM116.014 27.5L110.602 13.8217L105.189 27.5H116.014ZM88.585 39.8344V8.43781H92.9805V39.8344H88.585ZM68.4778 39.7895C69.8532 40.1782 71.3782 40.3726 73.0527 40.3726C75.4747 40.3726 77.508 39.9839 79.1526 39.2064C80.8271 38.3991 82.0829 37.3226 82.9202 35.9771C83.7873 34.6016 84.2209 33.0617 84.2209 31.3573C84.2209 29.3838 83.4136 27.5748 81.7989 25.9302C80.2141 24.2557 77.9565 23.0596 75.0262 22.342L71.3932 21.4449C69.9579 21.0861 68.8067 20.5629 67.9395 19.8751C67.1023 19.1575 66.6837 18.1408 66.6837 16.8252C66.6837 15.2703 67.2219 14.0443 68.2984 13.1473C69.4047 12.2502 70.8998 11.8017 72.7836 11.8017C74.5777 11.8017 76.0877 12.2203 77.3137 13.0576C78.5396 13.8649 79.4068 14.9414 79.9151 16.2869L84.1761 14.8517C83.7574 13.5958 83.0547 12.4446 82.068 11.398C81.1112 10.3515 79.8852 9.51425 78.3901 8.88632C76.895 8.22849 75.1308 7.89957 73.0975 7.89957C69.5692 7.89957 66.8631 8.70691 64.9793 10.3216C63.1254 11.9363 62.1985 14.1789 62.1985 17.0494C62.1985 18.6043 62.5423 19.9349 63.2301 21.0413C63.9178 22.1476 64.8447 23.0596 66.0109 23.7773C67.207 24.4949 68.5226 25.0481 69.9579 25.4368L73.5909 26.3787C75.4149 26.8272 76.8801 27.4851 77.9864 28.3522C79.0928 29.1894 79.646 30.2808 79.646 31.6264C79.646 33.0916 79.0031 34.2727 77.7173 35.1697C76.4615 36.0369 74.7272 36.4704 72.5145 36.4704C70.6905 36.4405 69.1506 35.9771 67.8947 35.08C66.6388 34.183 65.7866 33.1215 65.3381 31.8955L61.0771 33.2859C61.3463 34.2129 61.8097 35.095 62.4676 35.9322C63.1254 36.7695 63.9477 37.5319 64.9344 38.2197C65.9511 38.8775 67.1322 39.4008 68.4778 39.7895Z" fill="#212121"/>
<path fill-rule="evenodd" clip-rule="evenodd" d="M23.277 43.8846C19.0827 43.637 15.205 42.2123 11.9696 39.9361L10.3233 41.5824C9.91249 41.9932 9.24637 41.9932 8.83552 41.5824L6.41779 39.1647C6.00694 38.7538 6.00694 38.0877 6.41779 37.6768L7.88146 36.2132C5.17005 33.0371 3.34828 29.0785 2.80185 24.7233H1.05206C0.471022 24.7233 0 24.2523 0 23.6712V20.2521C0 19.671 0.471021 19.2 1.05205 19.2H2.80185C3.34826 14.8448 5.16998 10.8864 7.88131 7.7103L6.41746 6.24645C6.00661 5.8356 6.00661 5.16948 6.41746 4.75862L8.83519 2.3409C9.24604 1.93005 9.91216 1.93005 10.323 2.3409L11.9694 3.98729C15.5403 1.47506 19.8937 0 24.5915 0C24.9001 0 25.2072 0.00636442 25.5127 0.0189691V0.0873435C14.3078 1.08474 5.52356 10.4973 5.52356 21.9616C5.52356 33.6046 14.5838 43.1315 26.0385 43.8764C37.4931 43.1313 46.5532 33.6045 46.5532 21.9616C46.5532 21.9178 46.553 21.8739 46.5528 21.8301H46.5537V20.2521C46.5537 19.671 47.0247 19.2 47.6058 19.2H49.5784H51.0249C51.606 19.2 52.077 19.671 52.077 20.2521V23.6712C52.077 24.2523 51.606 24.7233 51.0249 24.7233H49.0119C48.4737 29.0136 46.6978 32.9189 44.053 36.0706L45.6593 37.6769C46.0702 38.0877 46.0702 38.7538 45.6593 39.1647L43.2416 41.5824C42.8307 41.9933 42.1646 41.9933 41.7538 41.5824L39.9982 39.8268C36.7995 42.1183 32.96 43.5721 28.8003 43.8675V46.9479C28.8003 47.529 28.3293 48 27.7482 48H24.3291C23.748 48 23.277 47.529 23.277 46.9479V43.8846Z" fill="#212121"/>
<path fill-rule="evenodd" clip-rule="evenodd" d="M26.2358 12.6247C28.9594 12.6247 31.1673 10.4167 31.1673 7.69315C31.1673 4.96955 28.9594 2.76164 26.2358 2.76164C23.5122 2.76164 21.3043 4.96955 21.3043 7.69315C21.3043 10.4167 23.5122 12.6247 26.2358 12.6247ZM12.2959 7.89043C12.3343 7.92313 12.3744 7.95748 12.4162 7.99343C12.375 7.95858 12.3349 7.92424 12.2959 7.89043ZM29.6548 14.3343C21.8368 14.3343 14.9913 10.1725 12.4162 7.99343C13.6618 9.06579 16.3666 11.5539 18.148 13.7425C20.4493 16.5699 21.5671 18.411 21.5671 22.0274C21.5671 25.6439 20.4493 27.5507 19.7918 28.537C19.7769 28.5593 19.7613 28.5829 19.7448 28.6076C19.2252 29.3905 17.897 31.3919 13.4986 34.8472C13.0104 35.1843 12.6062 35.4989 12.2959 35.7699C12.7204 35.4515 13.1208 35.144 13.4986 34.8472C16.0505 33.0852 20.8973 30.7069 26.6301 30.7069C33.3974 30.7069 38.3276 34.0209 39.9985 35.7233C40.0147 35.7403 40.0298 35.7558 40.0438 35.7699C40.029 35.7545 40.0139 35.739 39.9985 35.7233C39.9458 35.6679 39.8816 35.597 39.8046 35.512C39.1299 34.7671 37.4734 32.9382 33.9945 30.9699C29.9967 28.708 24.7014 28.537 22.5534 28.7343C25.657 24.0526 23.8466 17.9726 22.5534 15.5178C33.074 17.4641 40.1754 12.0767 42.411 9.13974C37.7819 13.4532 31.9781 14.4 29.6548 14.3343Z" fill="#0B3DCB"/>
</svg>
